<svg id="Capa_1" enable-background="new 0 0 512 512" height="512" viewBox="0 0 512 512" width="512" xmlns="http://www.w3.org/2000/svg"><path d="m304.837 60.01h-99.736c-5.819 0-11.12 3.343-13.628 8.595l-21.603 45.247h85.099 85.099l-21.603-45.247c-2.507-5.251-7.808-8.595-13.628-8.595z" fill="#fac600"/><path d="m340.066 113.852h-21.207l-21.609-45.248c-2.504-5.255-7.811-8.594-13.623-8.594h21.207c5.822 0 11.129 3.339 13.633 8.594z" fill="#e0ae10"/><path d="m72.6 230.937h-60.111c-6.841 0-12.386-5.546-12.386-12.386v-17.229c0-6.841 5.545-12.386 12.386-12.386h60.111z" fill="#5a5a5a"/><path d="m439.4 230.937h60.111c6.841 0 12.386-5.546 12.386-12.386v-17.229c0-6.841-5.546-12.386-12.386-12.386h-60.111z" fill="#5a5a5a"/><path d="m419.549 136.315c-7.349-14.402-22.152-23.468-38.321-23.468h-125.228-125.228c-16.169 0-30.972 9.066-38.321 23.468l-48.282 94.621h211.831 211.831z" fill="#8ac9fe"/><path d="m467.834 230.934h-27.462l-48.277-94.618c-7.347-14.406-22.155-23.464-38.323-23.464h27.462c16.168 0 30.966 9.058 38.313 23.464z" fill="#60b7ff"/><path d="m61.631 451.99h-42.166c-10.75 0-19.465-8.715-19.465-19.465v-123.132h81.096v123.132c0 10.75-8.715 19.465-19.465 19.465z" fill="#5a5a5a"/><path d="m492.535 451.99h-42.166c-10.75 0-19.465-8.715-19.465-19.465v-123.132h81.096v123.132c0 10.75-8.715 19.465-19.465 19.465z" fill="#5a5a5a"/><path d="m81.096 309.391v123.134c0 10.752-8.71 19.462-19.462 19.462h-21.667c10.752 0 19.462-8.71 19.462-19.462v-123.134z" fill="#444"/><path d="m512 309.391v123.134c0 10.752-8.71 19.462-19.462 19.462h-21.667c10.752 0 19.473-8.71 19.473-19.462v-123.134z" fill="#444"/><path d="m467.692 230.937h-211.692-211.692l-15.938 7.083c-17.252 7.667-28.37 24.776-28.37 43.654v37.115c0 9.985 3.769 19.602 10.553 26.929l62.331 67.317c5.845 6.313 14.059 9.901 22.662 9.901h160.454 160.455c8.603 0 16.817-3.589 22.662-9.901l62.331-67.317c6.784-7.327 10.553-16.944 10.553-26.929v-37.115c0-18.879-11.118-35.987-28.37-43.654z" fill="#fac600"/><path d="m491.764 242.638c12.53 8.837 20.236 23.322 20.236 39.034v37.121c0 9.981-3.769 19.592-10.556 26.923l-62.329 67.314c-5.843 6.321-14.054 9.905-22.655 9.905h-320.919c-8.602 0-16.812-3.584-22.655-9.905l-14.988-16.182c4.594 2.552 9.818 3.931 15.183 3.931h332.611c8.721 0 17.051-3.638 22.97-10.035 17.952-19.386 35.623-38.468 53.564-57.843 8.124-8.775 10.611-15.487 10.48-28.085z" fill="#e0ae10"/><path d="m171.812 344.461c-4.849 0-8.257 4.772-6.684 9.358l10.782 31.448c.979 2.856 3.665 4.775 6.684 4.775h146.813c3.019 0 5.705-1.918 6.684-4.775l10.782-31.448c1.573-4.586-1.836-9.358-6.684-9.358z" fill="#5a5a5a"/><path d="m346.876 353.819-10.785 31.452c-.977 2.856-3.671 4.768-6.69 4.768h-146.802c-3.03 0-5.713-1.911-6.69-4.768l-4.192-12.24c.13.022.272.022.413.022h142.795c2.943 0 5.55-1.868 6.506-4.648l8.211-23.948h10.546c4.853 0 8.252 4.779 6.688 9.362z" fill="#444"/><circle cx="90.463" cy="305.513" fill="#ebebeb" r="32.585"/><circle cx="421.537" cy="305.513" fill="#ebebeb" r="32.585"/><g fill="#5a5a5a"><path d="m217.06 230.932h-29.519c0-16.302-13.217-29.519-29.53-29.519-16.302 0-29.519 13.217-29.519 29.519h-29.519c0-32.603 26.435-59.038 59.038-59.038 32.614 0 59.049 26.434 59.049 59.038z"/><path d="m175.979 318.956c-4.142 0-7.5-3.358-7.5-7.5v-21.207c0-4.142 3.358-7.5 7.5-7.5s7.5 3.358 7.5 7.5v21.207c0 4.142-3.357 7.5-7.5 7.5z"/><path d="m209.716 318.956c-4.142 0-7.5-3.358-7.5-7.5v-21.207c0-4.142 3.358-7.5 7.5-7.5s7.5 3.358 7.5 7.5v21.207c0 4.142-3.358 7.5-7.5 7.5z"/><path d="m243.453 318.956c-4.142 0-7.5-3.358-7.5-7.5v-21.207c0-4.142 3.358-7.5 7.5-7.5s7.5 3.358 7.5 7.5v21.207c0 4.142-3.358 7.5-7.5 7.5z"/><path d="m277.19 318.956c-4.142 0-7.5-3.358-7.5-7.5v-21.207c0-4.142 3.358-7.5 7.5-7.5s7.5 3.358 7.5 7.5v21.207c0 4.142-3.358 7.5-7.5 7.5z"/><path d="m310.927 318.956c-4.142 0-7.5-3.358-7.5-7.5v-21.207c0-4.142 3.358-7.5 7.5-7.5s7.5 3.358 7.5 7.5v21.207c0 4.142-3.358 7.5-7.5 7.5z"/><path d="m344.664 318.956c-4.142 0-7.5-3.358-7.5-7.5v-21.207c0-4.142 3.358-7.5 7.5-7.5s7.5 3.358 7.5 7.5v21.207c0 4.142-3.358 7.5-7.5 7.5z"/></g></svg>