<svg height="512pt" viewBox="0 -132 512 512" width="512pt" xmlns="http://www.w3.org/2000/svg"><path d="m311.046875 0h-60.828125c-6.421875 0-11.628906 5.207031-11.628906 11.632812v33.574219h84.085937v-33.574219c0-6.425781-5.207031-11.632812-11.628906-11.632812zm0 0" fill="#ffd500"/><path d="m310.71875 0h-22.671875c6.605469 0 11.957031 5.355469 11.957031 11.960938v33.246093h22.671875v-33.246093c0-6.605469-5.351562-11.960938-11.957031-11.960938zm0 0" fill="#fbc700"/><path d="m127.078125 112.035156 72.507813-57.539062c7.386718-5.859375 16.539062-9.050782 25.96875-9.050782h107.957031c8.640625 0 17.074219 2.679688 24.128906 7.671876l83.296875 58.917968zm0 0" fill="#5a5a5a"/><path d="m357.640625 53.117188c-7.054687-4.992188-15.488281-7.671876-24.128906-7.671876h-57.910157c8.644532 0 17.074219 2.679688 24.128907 7.671876l83.296875 58.917968h57.910156zm0 0" fill="#444"/><path d="m362.089844 46.820312c-8.402344-5.941406-18.285156-9.085937-28.578125-9.085937h-107.957031c-11.125 0-22.050782 3.808594-30.761719 10.722656l-89.835938 71.292969h360.230469zm-8.902344 12.589844 63.496094 44.914063h-131.648438v-51.167969h48.476563c7.085937 0 13.890625 2.164062 19.675781 6.253906zm-148.808594 1.128906c6-4.761718 13.519532-7.382812 21.179688-7.382812h44.054687v51.167969h-120.414062zm0 0" fill="#fed500"/><path d="m500.140625 213.773438h-488.28125c-6.550781 0-11.859375-5.308594-11.859375-11.855469v-53.410157c0-12.503906 8.417969-23.4375 20.507812-26.636718l76.847657-20.582032c9.660156-2.589843 19.621093-3.898437 29.625-3.898437h368.5c9.125 0 16.519531 7.394531 16.519531 16.519531v88.007813c0 6.546875-5.308594 11.855469-11.859375 11.855469zm0 0" fill="#ffd500"/><path d="m512 155.582031h-35.675781c-8.121094 0-14.703125-6.585937-14.703125-14.703125v-.886718c0-8.121094 6.582031-14.707032 14.703125-14.707032h35.675781zm0 0" fill="#ff6930"/><path d="m46.605469 150.992188c2.566406 5.4375-3.46875 13.675781-13.476563 18.398437-10.007812 4.722656-16.84375 2.558594-19.410156-2.878906s.109375-12.089844 10.121094-16.816407c10.007812-4.71875 20.199218-4.140624 22.765625 1.296876zm0 0" fill="#e7e7e7"/><path d="m495.480469 97.386719h-16.035157v79.378906c0 6.546875-5.308593 11.855469-11.859374 11.855469h-467.585938v13.296875c0 6.546875 5.308594 11.855469 11.859375 11.855469h488.28125c6.550781 0 11.859375-5.308594 11.859375-11.855469v-88.007813c0-9.125-7.394531-16.523437-16.519531-16.523437zm0 0" fill="#fbc700"/><path d="m479.445312 125.289062h32.554688v30.292969h-32.554688zm0 0" fill="#ff5426"/><path d="m146.15625 211.132812c0 20.816407-16.875 37.691407-37.691406 37.691407s-37.691406-16.875-37.691406-37.691407c0-20.816406 16.875-37.691406 37.691406-37.691406s37.691406 16.875 37.691406 37.691406zm0 0" fill="#9c9c9c"/><path d="m121.222656 175.660156c4.335938 6.140625 6.890625 13.625 6.890625 21.710938 0 20.816406-16.875 37.691406-37.691406 37.691406-4.480469 0-8.773437-.785156-12.757813-2.214844 6.824219 9.660156 18.074219 15.976563 30.800782 15.976563 20.816406 0 37.691406-16.875 37.691406-37.691407 0-16.335937-10.398438-30.242187-24.933594-35.472656zm0 0" fill="#838383"/><path d="m118.625 211.132812c0 5.609376-4.550781 10.160157-10.160156 10.160157s-10.15625-4.550781-10.15625-10.160157c0-5.609374 4.546875-10.15625 10.15625-10.15625s10.160156 4.546876 10.160156 10.15625zm0 0" fill="#e7e7e7"/><path d="m436.75 211.132812c0 20.816407-16.875 37.691407-37.691406 37.691407s-37.691406-16.875-37.691406-37.691407c0-20.816406 16.875-37.691406 37.691406-37.691406s37.691406 16.875 37.691406 37.691406zm0 0" fill="#9c9c9c"/><path d="m411.816406 175.660156c4.335938 6.140625 6.890625 13.625 6.890625 21.710938 0 20.816406-16.875 37.691406-37.691406 37.691406-4.480469 0-8.773437-.785156-12.753906-2.214844 6.824219 9.660156 18.070312 15.976563 30.796875 15.976563 20.816406 0 37.691406-16.875 37.691406-37.691407 0-16.335937-10.398438-30.242187-24.933594-35.472656zm0 0" fill="#838383"/><path d="m409.21875 211.132812c0 5.609376-4.546875 10.160157-10.160156 10.160157-5.609375 0-10.15625-4.550781-10.15625-10.160157 0-5.609374 4.546875-10.15625 10.15625-10.15625 5.613281 0 10.160156 4.546876 10.160156 10.15625zm0 0" fill="#e7e7e7"/><g fill="#5a5a5a"><path d="m261.347656 174.410156h-19.019531c-1.65625 0-3-1.34375-3-3v-22.023437h25.019531v22.023437c0 1.65625-1.339844 3-3 3zm0 0"/><path d="m311.390625 174.410156h-19.019531c-1.65625 0-3-1.34375-3-3v-22.023437h25.019531v22.023437c0 1.65625-1.339844 3-3 3zm0 0"/><path d="m239.328125 149.386719h-22.023437c-1.65625 0-3-1.34375-3-3v-19.023438c0-1.65625 1.34375-3 3-3h19.023437c1.65625 0 3 1.34375 3 3zm0 0"/><path d="m289.371094 149.386719h-25.023438v-22.023438c0-1.65625 1.34375-3 3-3h19.023438c1.65625 0 3 1.34375 3 3zm0 0"/><path d="m336.414062 149.386719h-22.023437v-22.023438c0-1.65625 1.34375-3 3-3h19.023437c1.65625 0 3 1.34375 3 3v19.023438c0 1.65625-1.34375 3-3 3zm0 0"/></g></svg>